<?xml version="1.0" standalone="no"?>
<!DOCTYPE svg PUBLIC "-//W3C//DTD SVG 20010904//EN"
 "http://www.w3.org/TR/2001/REC-SVG-20010904/DTD/svg10.dtd">
<svg version="1.0" xmlns="http://www.w3.org/2000/svg"
 width="388.000000pt" height="388.000000pt" viewBox="0 0 388.000000 388.000000"
 preserveAspectRatio="xMidYMid meet">
<metadata>
Created by potrace 1.11, written by Peter Selinger 2001-2013
</metadata>
<g transform="translate(0.000000,388.000000) scale(0.100000,-0.100000)"
fill="#000000" stroke="none">
<path d="M1906 3869 c-10 -6 -107 -100 -215 -208 -208 -210 -234 -246 -265
-366 -20 -75 -20 -154 -1 -230 32 -125 58 -160 299 -398 99 -99 188 -191 198
-205 21 -31 14 -71 -16 -98 -21 -19 -36 -21 -149 -22 -70 0 -136 -3 -147 -7
-11 -4 -27 -20 -36 -36 -19 -38 -5 -91 29 -106 14 -7 133 -11 304 -11 155 0
290 -3 300 -6 10 -4 26 -18 36 -32 25 -34 12 -93 -23 -111 -19 -10 -119 -13
-393 -13 l-368 0 -24 -25 c-33 -32 -33 -78 -1 -110 l24 -24 372 -1 c395 0 400
-1 420 -50 13 -34 8 -58 -19 -86 -26 -27 -4 -26 -341 -25 -141 0 -259 -4 -277
-10 -51 -16 -65 -82 -26 -123 19 -21 34 -26 71 -27 225 -3 231 -3 253 -26 15
-14 22 -34 22 -57 0 -32 -17 -52 -216 -251 -119 -120 -214 -221 -211 -226 3
-5 1 -9 -4 -9 -17 0 -52 -69 -72 -141 -25 -91 -21 -200 10 -292 12 -37 27 -67
31 -67 5 0 9 -6 9 -13 0 -20 48 -73 240 -265 209 -208 226 -218 280 -163 29
28 31 41 15 92 -4 10 -11 19 -16 19 -17 0 -47 62 -43 89 3 14 15 36 29 47 21
20 36 22 145 23 126 0 155 5 177 26 36 36 13 119 -35 128 -13 2 -148 5 -300 5
-153 1 -280 1 -284 1 -4 1 -19 13 -34 28 -21 21 -25 32 -21 60 12 70 -2 67
423 73 l382 5 22 25 c15 18 20 33 16 58 -9 69 5 66 -424 73 -213 3 -388 6
-389 7 -1 1 -10 16 -18 33 -13 23 -14 38 -7 59 6 16 8 30 6 33 -3 2 9 10 26
17 23 10 104 13 308 12 263 -1 330 5 333 29 2 13 5 22 13 41 4 9 1 29 -8 47
-20 37 -46 43 -202 45 -114 1 -116 2 -140 29 -14 17 -22 36 -20 50 3 12 5 26
5 30 1 5 21 29 46 53 25 24 43 44 39 44 -4 0 5 9 20 21 75 59 324 321 350 369
89 164 83 363 -17 509 -16 24 -119 133 -229 242 -109 110 -203 211 -208 224
-6 16 -6 34 0 49 16 43 47 54 150 54 52 0 111 1 131 1 91 2 118 109 38 151
-12 7 -123 10 -302 9 -155 0 -290 2 -300 6 -20 8 -47 55 -47 80 0 9 13 30 29
46 l29 29 372 0 371 0 26 26 c21 21 24 32 20 62 -12 69 4 66 -421 72 -359 5
-384 6 -402 24 -27 28 -24 90 7 116 23 18 40 19 312 20 255 0 292 2 318 17 30
18 31 20 34 66 3 39 -35 77 -77 77 -236 4 -247 5 -267 25 -11 11 -22 31 -24
45 -5 27 17 80 33 80 5 0 16 12 23 28 38 74 -36 152 -107 111z"/>
</g>
</svg>
