<svg width="100pt" height="100pt" viewBox="0 0 100 100" xmlns="http://www.w3.org/2000/svg"><path d="M67.25 88h-34.5C28.477 88 25 84.273 25 80V66l3-39h44l3 39v14c0 4.273-3.477 8-7.75 8zM28 66v14c0 2.617 2.133 5 4.75 5h34.5c2.617 0 4.75-2.383 4.75-5V66l-3-36H31z"/><path d="M73.336 69H28.164c-.781 0-1.414-.672-1.414-1.5s.633-1.5 1.414-1.5h45.172c.781 0 1.414.672 1.414 1.5s-.637 1.5-1.414 1.5zM64 76.5c0 4.668-7 4.668-7 0s7-4.668 7 0m-21 0c0 4.668-7 4.668-7 0s7-4.668 7 0M39.5 40a4.501 4.501 0 0 0-4.5 4.5c0 2.48 2.016 4.5 4.5 4.5s4.5-2.02 4.5-4.5c0-2.484-2.016-4.5-4.5-4.5zm0 6a1.5 1.5 0 1 1 0-3 1.5 1.5 0 0 1 0 3zm24-17a1.5 1.5 0 0 1-1.5-1.5v-13a1.5 1.5 0 0 1 3 0v13a1.5 1.5 0 0 1-1.5 1.5zm-27 0a1.5 1.5 0 0 1-1.5-1.5v-13a1.5 1.5 0 0 1 3 0v13a1.5 1.5 0 0 1-1.5 1.5zM18 39c-7.168 0-13-4.91-13-10.488V27h26v1.512C31 34.09 25.168 39 18 39zM8 30c1.02 3.144 5.246 6 10 6s8.977-2.856 10-6zm74 9c-7.168 0-13-4.91-13-10.488V27h26v1.512C95 34.09 89.168 39 82 39zm-10-9c1.02 3.144 5.246 6 10 6s8.977-2.856 10-6zM60.5 40a4.501 4.501 0 0 0-4.5 4.5c0 2.48 2.016 4.5 4.5 4.5a4.501 4.501 0 0 0 0-9zm0 6a1.5 1.5 0 1 1 0-3 1.5 1.5 0 0 1 0 3z"/></svg>