<svg height="96" viewBox="0 0 96 96" width="96" xmlns="http://www.w3.org/2000/svg"><path d="M55.586 58.586L50 64.172V51a2 2 0 0 0-4 0v13.172l-5.586-5.586a2 2 0 1 0-2.828 2.828l8.999 8.999c.093.093.196.177.307.251.047.031.099.053.148.08.064.035.127.074.195.104.065.026.133.042.2.062.058.017.113.039.173.052a2.068 2.068 0 0 0 .784-.001c.06-.013.115-.035.173-.052.067-.02.135-.035.2-.062.068-.029.131-.068.195-.104.05-.027.101-.049.148-.08.11-.074.214-.158.307-.251l8.999-8.999a2 2 0 1 0-2.828-2.827z"/><path d="M66 40c-.508 0-1.112.079-1.689.184C62.218 33.012 55.663 28 48 28c-7.664 0-14.219 5.012-16.312 12.184C31.112 40.079 30.507 40 30 40c-6.065 0-11 4.935-11 11s4.935 11 11.001 11l2-.001a2 2 0 0 0-.001-4h-.001L30 58c-3.859 0-7-3.141-7-7s3.141-7 7-7c.277 0 .724.068 1.194.162V46a2 2 0 0 0 4 0v-3.224C36.269 36.525 41.631 32 48 32c6.372 0 11.736 4.53 12.808 10.787V46a2 2 0 0 0 4 0v-1.838c.469-.094.915-.162 1.192-.162 3.859 0 7 3.141 7 7s-3.141 7-6.999 7l-2-.001H64a2 2 0 0 0-.001 4L66 62c6.065 0 11-4.935 11-11s-4.935-11-11-11z"/></svg>