<svg width="100pt" height="100pt" viewBox="0 0 100 100" xmlns="http://www.w3.org/2000/svg"><path d="M44.172 65.246a.912.912 0 0 0-.852-.965.914.914 0 0 0-.96.856l-.004.183a3.295 3.295 0 0 0 4.613 3.016c.695.726 1.664 1.148 2.691 1.148s1.996-.425 2.692-1.148a3.294 3.294 0 0 0 4.61-3.016l-.005-.183c-.027-.489-.496-.778-.933-.79-.493.016-.883.481-.883.977 0 .813-.66 1.473-1.473 1.473-.351 0-.691-.125-.957-.356a.903.903 0 0 0-.75-.207.936.936 0 0 0-.637.45c-.336.605-.98.98-1.668.98s-1.328-.375-1.668-.98a.913.913 0 0 0-1.386-.243 1.48 1.48 0 0 1-.957.356c-.813 0-1.473-.664-1.473-1.551zm19.769-16.637c-3.18 0-5.984 1.586-7.148 4.043a.91.91 0 0 0 .433 1.21.903.903 0 0 0 1.211-.429c.625-1.316 1.98-2.312 3.621-2.754-.328.414-.535.93-.535 1.496a2.417 2.417 0 0 0 4.836 0c0-.57-.207-1.085-.535-1.5 1.64.442 2.996 1.438 3.621 2.754a.907.907 0 0 0 1.21.43.91.91 0 0 0 .434-1.21c-1.168-2.45-3.972-4.04-7.148-4.04zm8.457-4.433c-4.992-2.453-14.383-2.176-18.27.531a1.458 1.458 0 0 0-.36 2.028 1.463 1.463 0 0 0 2.028.359c3.016-2.106 11.32-2.27 15.32-.309a1.453 1.453 0 1 0 1.281-2.61zm-28.191 2.922c.254.176.543.262.832.262a1.452 1.452 0 0 0 .832-2.648C41.984 42 32.598 41.726 27.605 44.18a1.455 1.455 0 0 0-.664 1.95 1.45 1.45 0 0 0 1.945.663c3.996-1.968 12.301-1.8 15.32.305zM58.27 73.551c-2.023 2-5.035 3.148-8.27 3.148-3.23 0-6.246-1.148-8.265-3.148a1.456 1.456 0 0 0-2.047 2.07c2.563 2.536 6.324 3.993 10.312 3.993 3.992 0 7.75-1.454 10.312-3.993.574-.566.574-1.484.012-2.058s-1.485-.578-2.055-.012zM41.398 53.438c.156.328.484.52.82.52a.91.91 0 0 0 .824-1.3c-1.16-2.458-3.968-4.044-7.144-4.044s-5.98 1.586-7.144 4.043a.91.91 0 0 0 1.644.781c.625-1.316 1.98-2.313 3.617-2.754-.328.414-.535.93-.535 1.496a2.419 2.419 0 0 0 4.836 0c0-.57-.207-1.086-.535-1.5 1.64.446 2.996 1.438 3.617 2.758z"/><path d="M86.531 46.984c-.828-2.703-2.816-4.11-5.356-3.727v-4.835c.278-.036.56-.079.84-.137a1.452 1.452 0 0 0 1.153-1.266c.855-7.668-1.598-15.16-6.907-21.098-6.046-6.758-15.219-10.793-24.48-10.793h-.007C40.278 4.616 29.836 8.87 23.219 16.655c-5.875 6.914-8.254 15.97-6.696 25.496.075.453.36.844.766 1.055.035.02.07.031.105.047-1.843.246-3.261 1.558-3.921 3.726-1.426 4.676.675 13.641 4.777 16.398.277.188.597.301.937.336 1.89 12.922 11.156 27.637 24.207 31 1.356.352 2.97.106 4.403-.187.789-.16 1.535-.309 2.183-.32.692.011 1.442.16 2.23.32.915.187 1.856.375 2.837.375.562 0 1.074-.063 1.57-.192 13.05-3.359 22.316-18.078 24.203-31 .34-.03.656-.148.937-.336 4.102-2.75 6.2-11.715 4.774-16.39zm-8.457-11.68h-.004c-1.64-.516-3.215-1.727-4.77-3.668-1.171-1.46-2.32-3.094-3.539-4.816-3.933-5.578-8-11.344-13.113-11.344-1.707 0-3.347.64-4.96 1.922 1.261-2.575 2.843-4.008 4.726-4.266 4.57-.617 10.566 5.68 14.227 11.844 3.36 4.941 4.828 6.594 9.79 9.164-.005.477-.016.957-.048 1.438a6.593 6.593 0 0 1-.77 0 5.258 5.258 0 0 1-.55-.055 39.033 39.033 0 0 1-.25-.035 7.84 7.84 0 0 1-.738-.184zM29.539 30.39c-2.285 5.652-4.445 10.992-8.035 11.039 2.492-2.625 4.398-7.227 6.39-12.047 1.954-4.735 3.977-9.629 6.668-13.105 1.727-2.23 4.516-3.336 7.086-2.824 2.098.422 3.86 1.86 5.176 4.12-1.773-.862-3.43-1.3-4.992-1.3-.55 0-1.066.07-1.566.168-5.512 1.102-8.274 7.887-10.727 13.949zm-4.102-11.852c5.696-6.7 14.602-10.543 24.441-10.543.586 0 1.176.016 1.836.043 8.516 0 16.88 3.672 22.383 9.824 3.664 4.094 5.809 9.008 6.246 14.176-3.906-2.121-5.18-3.637-8.175-8.039-3.024-5.102-9.805-13.523-16.004-12.672-2.95.402-5.258 2.773-6.88 7.059-2.093-4.93-5.35-6.329-7.273-6.711-3.25-.649-6.734.722-8.882 3.492-2.84 3.668-4.91 8.68-6.91 13.523-2.18 5.273-4.255 10.273-6.883 12.266-.02-.008-.036-.012-.055-.02-1.18-8.394.996-16.324 6.156-22.398zm-9.183 29.297c.527-1.73 1.418-1.73 1.754-1.73.215 0 .449.03.703.093.035.012.07.016.11.024v12.723c0 .347.007.695.019 1.047-2.22-2.727-3.625-8.762-2.586-12.156zM78.27 58.9a31.007 31.007 0 0 1-.16 3.012C76.883 73.917 68.059 88.768 55.887 91.9c-.813.21-1.926.02-3.102-.223-.887-.18-1.8-.363-2.809-.379-.96.016-1.878.2-2.757.379-1.176.238-2.29.43-3.102.223-12.172-3.133-20.996-17.984-22.227-29.988a31.194 31.194 0 0 1-.16-3.062V44.337c.05-.004.098-.015.148-.015.27-.016.532-.043.785-.09.06-.012.118-.028.176-.04.258-.054.508-.117.75-.202l.145-.059c.246-.094.488-.191.722-.313.04-.02.079-.046.118-.066.238-.129.472-.27.695-.426.031-.02.059-.047.09-.066a8.63 8.63 0 0 0 .676-.535c.02-.02.039-.035.058-.055.227-.203.445-.418.66-.648l.024-.028c2.285-2.484 3.89-6.433 5.457-10.309.754-1.867 1.515-3.754 2.347-5.469.012-.02.02-.043.032-.062l.14-.277c.805-1.618 1.668-3.075 2.657-4.192 1.25-1.418 2.691-2.297 4.425-2.297 1.993 0 4.43 1.09 7.243 3.239a1.453 1.453 0 0 0 2.039-.27c.722-.937 1.437-1.703 2.136-2.293 1.168-.984 2.305-1.48 3.395-1.48 3.601 0 7.226 5.14 10.734 10.113 1.187 1.687 2.418 3.43 3.644 4.96a20.028 20.028 0 0 0 1.586 1.743c.067.066.133.132.2.195.257.246.519.477.78.691.044.036.09.067.134.102.226.18.453.348.683.508.074.05.145.101.219.148.238.156.48.305.723.442.03.02.066.039.097.058.293.16.586.301.887.426.023.012.047.02.066.027.282.117.567.215.852.305.027.008.058.02.086.027.308.09.617.168.933.227V58.9zm2.887 1.098c.011-.364.019-.735.019-1.106v-.043l.004-12.629.11-.023c.257-.063.491-.094.706-.094.336 0 1.227 0 1.754 1.73 1.035 3.399-.375 9.434-2.594 12.164z"/></svg>