<svg width="100pt" height="100pt" viewBox="0 0 100 100" xmlns="http://www.w3.org/2000/svg"><g fill-rule="evenodd"><path d="M86.895 33.445c-.703 0-1.383.066-2.043.172-2.617-18.47-17.234-32.598-34.871-32.598-17.641 0-32.258 14.129-34.875 32.598a12.026 12.026 0 0 0-1.957-.149C5.958 33.468.086 39.32.086 46.53c0 7.024 5.574 12.79 12.551 13.043a29.064 29.064 0 0 0-.785 6.637c0 4.512 1.043 8.895 3.129 13 1.976 3.918 4.765 7.406 8.316 10.387 7.149 6 16.641 9.317 26.66 9.317 10.023 0 19.531-3.317 26.703-9.34 3.55-2.977 6.36-6.47 8.32-10.383 2.063-4.106 3.125-8.489 3.125-13a27.79 27.79 0 0 0-.785-6.637c7-.215 12.637-5.98 12.637-13.043 0-7.191-5.851-13.066-13.062-13.066zM83.34 69.383s-16.777 3.344-33.512 3.344-33.465-3.344-33.465-3.344a23.156 23.156 0 0 1-.172-2.766c0-2.554.407-5.02 1.149-7.363.258-.766.531-1.508.851-2.254 1.703-3.937 6.692-8.683 7.871-10.363 1.18-1.676.043-2.957-.445-4.02-4.105-9.171-1.723-18.104 5.32-19.956.872-.235 1.786-.34 2.7-.34 5.808 0 14.559 11.02 16.19 11.02 1.637 0 10.384-11.02 16.192-11.02.918 0 1.832.105 2.703.34 7.043 1.851 9.426 10.785 5.32 19.957-.488 1.062-1.398 2.472-.363 4.086 1.035 1.613 6.11 6.382 7.808 10.297.32.722.598 1.468.832 2.234a23.29 23.29 0 0 1 1.192 7.383 24 24 0 0 1-.172 2.765zm-33.488 7.938c16.277 0 32.551-3.47 32.551-3.47-3.804 12.087-16.934 21-32.55 21-15.618 0-28.747-8.913-32.556-21 0 0 16.277 3.47 32.555 3.47z"/><path d="M45.234 42.828c0 6.043-9.063 6.043-9.063 0 0-6.04 9.063-6.04 9.063 0M57.02 60c0 4.254-6.383 4.254-6.383 0s6.383-4.254 6.383 0m-7.872 0c0 4.254-6.383 4.254-6.383 0s6.383-4.254 6.383 0M59 47.363a4.533 4.533 0 0 0 0-9.066 4.533 4.533 0 1 0 0 9.066z"/></g></svg>