<svg width="100pt" height="100pt" viewBox="0 0 100 100" xmlns="http://www.w3.org/2000/svg"><path d="M62.773 50.406a2.548 2.548 0 1 0-2.547 2.55 2.548 2.548 0 0 0 2.547-2.55zm-20.726 0a2.548 2.548 0 1 0-2.547 2.55 2.55 2.55 0 0 0 2.547-2.55z"/><path d="M75.207 72.062c-9.293 13.996-28.176 17.809-42.172 8.516-13.996-9.297-17.809-28.176-8.516-42.172a13.554 13.554 0 0 1-9.859-13.602c.305-7.485 6.621-13.301 14.105-12.992 7.48.304 13.301 6.625 12.992 14.105a30.45 30.45 0 0 1 16.211 0 13.563 13.563 0 0 1 9.863-13.605c7.207-2.036 14.7 2.156 16.734 9.363s-2.156 14.703-9.363 16.738a30.406 30.406 0 0 1 .004 33.648zm-5.496-36.074c5.871.996 11.44-2.95 12.44-8.824 1-5.871-2.952-11.438-8.823-12.441-5.871-.996-11.441 2.953-12.441 8.824a10.813 10.813 0 0 0 1.09 6.84 27.648 27.648 0 0 0-24.228 0c2.778-5.27.754-11.797-4.515-14.57-5.27-2.777-11.797-.758-14.57 4.515-2.777 5.27-.758 11.793 4.515 14.57a10.77 10.77 0 0 0 6.836 1.09c-10.629 10.961-10.355 28.465.602 39.094 10.961 10.63 28.469 10.355 39.094-.605 10.395-10.723 10.395-27.77 0-38.492z"/><path d="M59.754 64.688a.658.658 0 0 1-.656-.656c0-.364.297-.656.656-.656h6.836a.66.66 0 0 1 .656.656.658.658 0 0 1-.656.656zm.101 2.714a.655.655 0 0 1-.316-.871.653.653 0 0 1 .87-.317l5.887 2.747a.65.65 0 0 1 .317.87.65.65 0 0 1-.871.317zm-19.882-2.714a.658.658 0 0 0 .656-.656.658.658 0 0 0-.656-.656h-6.836a.658.658 0 0 0-.656.656c0 .363.297.656.656.656zm19.882-4.032a.655.655 0 0 0-.316.871.653.653 0 0 0 .87.317l5.887-2.743a.655.655 0 0 0 .317-.875.65.65 0 0 0-.871-.316zm-19.988 6.746a.656.656 0 1 0-.555-1.188l-5.882 2.747a.655.655 0 1 0 .554 1.187zm0-6.746a.656.656 0 1 1-.555 1.188L33.43 59.1a.658.658 0 0 1 .555-1.191zm11.274 7.785a2.76 2.76 0 0 0 .402-.531c.23-.383.399-.797.504-1.227a6.707 6.707 0 0 0 0-3.203 4.418 4.418 0 0 0-.504-1.227 3.015 3.015 0 0 0-.843-.906 1.46 1.46 0 0 0-.836-.262c-.301 0-.594.09-.84.262-.34.238-.63.55-.844.906a4.45 4.45 0 0 0-.504 1.227 6.707 6.707 0 0 0 0 3.203c.106.43.274.84.504 1.227.113.187.25.367.402.531a4.138 4.138 0 0 1-2.043 2.223 4.114 4.114 0 0 1-3.023.222 14.201 14.201 0 0 1-3.414-1.605.449.449 0 1 0-.469.765 14.956 14.956 0 0 0 3.613 1.696 5.023 5.023 0 0 0 3.688-.27 5.021 5.021 0 0 0 2.402-2.492c.168.063.344.098.528.098.18 0 .355-.035.523-.098a4.99 4.99 0 0 0 2.402 2.492 5.023 5.023 0 0 0 3.688.27 14.96 14.96 0 0 0 3.613-1.696.45.45 0 0 0 .149-.62.446.446 0 0 0-.618-.145 14.2 14.2 0 0 1-3.414 1.605 4.117 4.117 0 0 1-3.023-.222 4.152 4.152 0 0 1-2.043-2.223"/></svg>