<svg width="100pt" height="100pt" viewBox="0 0 100 100" xmlns="http://www.w3.org/2000/svg"><path d="M94.543 30.477c0-9.996-8.133-18.129-18.133-18.129-7.66 0-14.465 4.89-17.039 11.93-6.129-2.379-12.637-2.383-18.742.02-2.562-7.055-9.367-11.95-17.043-11.95-9.996 0-18.133 8.133-18.133 18.13 0 8.91 6.594 16.44 15.16 17.879-.848 4.293-.887 11.07.457 15.59 2.223 7.472 17.09 20.152 24.133 22.992 1.54.62 3.664.714 4.793.714s3.25-.093 4.793-.714c7.633-3.079 21.301-15.72 23.465-22.992 1.207-4.067 1.86-10.953 1.094-15.586 8.582-1.422 15.195-8.97 15.195-17.883zM76.731 44.434l-2.71.063.757 2.601c.101.344.195.692.281 1.04.844 3.405.465 10.37-.797 14.616-1.765 5.938-14.559 17.707-21.03 20.316-.231.094-.622.196-1.153.274V77.82h1.262a2.081 2.081 0 1 0 0-4.164h-6.688a2.081 2.081 0 1 0 0 4.164h1.262v5.524c-.531-.078-.922-.18-1.152-.274-6.602-2.664-20.016-14.645-21.7-20.316-1.226-4.129-1.085-11.098-.136-14.574.094-.351.2-.699.305-1.043l.828-2.644-2.77-.059c-7.539-.16-13.668-6.418-13.668-13.957 0-7.7 6.266-13.965 13.97-13.965 6.573 0 12.32 4.664 13.667 11.086l.551 2.64 2.414-1.202c6.352-3.164 13.2-3.157 19.578-.028l2.398 1.176.555-2.613c1.36-6.406 7.102-11.06 13.66-11.06 7.703 0 13.97 6.266 13.97 13.966-.005 7.527-6.126 13.789-13.653 13.957z"/><path d="M38.215 59.891c0 4.793-7.188 4.793-7.188 0s7.188-4.793 7.188 0m30.758 0c0 4.793-7.188 4.793-7.188 0s7.188-4.793 7.188 0"/></svg>