<svg width="100pt" height="100pt" viewBox="0 0 100 100" xmlns="http://www.w3.org/2000/svg"><path d="M89.828 40.008c-.637-.832-6.055-7.723-12.102-8.594a9.587 9.587 0 0 0 .195-1.937c0-4.024-2.511-7.61-6.16-9.059-.68-4.71-4.742-8.344-9.64-8.344a9.655 9.655 0 0 0-6.06 2.118 9.655 9.655 0 0 0-6.058-2.118 9.655 9.655 0 0 0-6.058 2.118 9.655 9.655 0 0 0-6.059-2.118c-4.894 0-8.96 3.633-9.64 8.344-3.649 1.45-6.16 5.035-6.16 9.059 0 .664.066 1.308.195 1.937-6.047.871-11.47 7.762-12.102 8.594a2.075 2.075 0 0 0 0 2.523c.68.887 6.812 8.684 13.34 8.684a15.1 15.1 0 0 0 2.687-.246V64.12c0 13.125 10.676 23.8 23.801 23.8 13.121 0 23.801-10.675 23.801-23.8L73.8 50.973c.867.156 1.766.246 2.688.246 6.527 0 12.66-7.797 13.34-8.684a2.08 2.08 0 0 0 0-2.527zM30.66 24.02a2.081 2.081 0 0 0 1.648-2.11l-.007-.093a5.586 5.586 0 0 1 5.578-5.578 5.53 5.53 0 0 1 4.41 2.18c.394.511 1.004.808 1.648.808s1.254-.3 1.649-.809a5.557 5.557 0 0 1 8.824 0 2.08 2.08 0 0 0 1.648.809c.645 0 1.254-.3 1.649-.809a5.541 5.541 0 0 1 4.41-2.18 5.585 5.585 0 0 1 5.578 5.536 2.083 2.083 0 0 0 1.64 2.246 5.603 5.603 0 0 1 4.419 5.457c0 3.074-2.5 5.578-5.578 5.578a5.53 5.53 0 0 1-4.41-2.18 2.08 2.08 0 0 0-1.649-.808c-.645 0-1.254.3-1.648.808a5.554 5.554 0 0 1-4.415 2.18 5.53 5.53 0 0 1-4.41-2.18 2.08 2.08 0 0 0-1.648-.808c-.645 0-1.254.3-1.649.808-1.066 1.383-2.675 2.18-4.41 2.18s-3.344-.793-4.41-2.18a2.08 2.08 0 0 0-1.648-.808c-.645 0-1.254.3-1.649.808a5.547 5.547 0 0 1-4.41 2.18 5.584 5.584 0 0 1-5.578-5.578 5.603 5.603 0 0 1 4.418-5.457zm-7.148 23.031c-3.141 0-6.91-3.473-8.973-5.781 2.062-2.313 5.836-5.785 8.973-5.785.226 0 .453.007.675.023a9.68 9.68 0 0 0 2.387 2.16 23.747 23.747 0 0 0-.371 4.11v4.933a10.8 10.8 0 0 1-2.691.34zm46.125 17.074c0 10.828-8.809 19.637-19.637 19.637s-19.637-8.809-19.637-19.637V41.777c0-.902.066-1.785.187-2.656.418.054.84.094 1.27.094a9.655 9.655 0 0 0 6.058-2.118c1.703 1.364 3.82 2.118 6.059 2.118s4.355-.754 6.058-2.118a9.655 9.655 0 0 0 6.059 2.118 9.655 9.655 0 0 0 6.059-2.118 9.655 9.655 0 0 0 6.058 2.118c.43 0 .852-.04 1.27-.094.12.867.187 1.754.187 2.652zm6.851-17.074a10.73 10.73 0 0 1-2.687-.34v-4.933a23.75 23.75 0 0 0-.371-4.11 9.831 9.831 0 0 0 2.386-2.16 9.68 9.68 0 0 1 .676-.023c3.137 0 6.91 3.468 8.973 5.78-2.043 2.27-5.856 5.786-8.977 5.786z"/><path d="M37.812 44.723a3.989 3.989 0 0 0-3.988 3.992 3.988 3.988 0 0 0 3.988 3.988c2.207 0 3.992-1.785 3.992-3.988s-1.785-3.992-3.992-3.992zm28.711 3.992c0 5.32-7.98 5.32-7.98 0s7.98-5.32 7.98 0M43.16 65.504h4.164v7.727H43.16zm9.863 0h4.164v7.727h-4.164z"/></svg>